<?xml version="1.0" encoding="utf-8"?>
<!-- Generator: Adobe Illustrator 22.0.1, SVG Export Plug-In . SVG Version: 6.00 Build 0)  -->
<svg version="1.1" id="logo" xmlns="http://www.w3.org/2000/svg" xmlns:xlink="http://www.w3.org/1999/xlink" x="0px" y="0px"
	 viewBox="0 0 596.3 159.4" style="enable-background:new 0 0 596.3 159.4;" xml:space="preserve">
<style type="text/css">
	.st0{fill:#FFFFFF;}
	.st1{fill:#4A545B;}
	.st2{fill:#F3C200;}
	.st3{fill:#00BCEC;}
	.st4{fill:#1AC528;}
</style>
<path class="st0" d="M141.6,102.9c0-4.5,0.8-8.6,2.5-12.3c1.6-3.7,3.9-6.8,6.7-9.4c2.8-2.6,6.2-4.6,10.1-6c3.9-1.4,8-2.1,12.3-2.1
	c4.4,0,8.5,0.7,12.3,2.1c3.9,1.4,7.2,3.4,10.1,6c2.8,2.6,5.1,5.8,6.7,9.4c1.6,3.7,2.5,7.8,2.5,12.3c0,4.5-0.8,8.6-2.5,12.3
	s-3.9,6.8-6.7,9.4c-2.8,2.6-6.2,4.6-10.1,6c-3.9,1.4-8,2.1-12.3,2.1c-4.4,0-8.5-0.7-12.3-2.1c-3.9-1.4-7.2-3.4-10.1-6
	c-2.8-2.6-5.1-5.8-6.7-9.4S141.6,107.4,141.6,102.9z M159.2,102.9c0,4.3,1.2,7.8,3.7,10.4s5.9,4,10.4,4c4.4,0,7.9-1.3,10.4-4
	s3.7-6.1,3.7-10.4s-1.2-7.8-3.7-10.4c-2.5-2.7-5.9-4-10.4-4c-4.4,0-7.9,1.3-10.4,4C160.4,95.2,159.2,98.6,159.2,102.9z"/>
<path class="st0" d="M248.5,91.2c-2.6-3.2-6-4.8-10.2-4.8c-1.5,0-2.9,0.4-4.3,1.1c-1.4,0.7-2.1,1.9-2.1,3.6c0,1.4,0.7,2.4,2.2,3.1
	c1.4,0.7,3.3,1.2,5.5,1.8c2.2,0.5,4.6,1.1,7.1,1.6c2.5,0.6,4.9,1.5,7.1,2.7c2.2,1.3,4.1,2.9,5.5,5.1c1.4,2.1,2.2,5,2.2,8.6
	c0,3.7-0.8,6.7-2.4,9.1c-1.6,2.4-3.6,4.3-6.1,5.7c-2.5,1.4-5.3,2.5-8.4,3c-3.1,0.6-6.2,0.9-9.2,0.9c-4,0-8-0.6-12.1-1.7
	c-4.1-1.1-7.5-3.1-10.3-6l10.6-11.8c1.6,2,3.5,3.6,5.4,4.6c2,1.1,4.3,1.6,7,1.6c2,0,3.9-0.3,5.5-0.9c1.6-0.6,2.5-1.7,2.5-3.2
	c0-1.5-0.7-2.6-2.2-3.3c-1.4-0.7-3.3-1.4-5.5-1.9c-2.2-0.5-4.6-1.1-7.1-1.6c-2.5-0.6-4.9-1.5-7.1-2.6c-2.2-1.2-4.1-2.8-5.5-5
	c-1.4-2.1-2.2-5-2.2-8.6c0-3.4,0.7-6.2,2-8.7c1.4-2.4,3.2-4.4,5.4-6c2.2-1.6,4.8-2.7,7.7-3.5c2.9-0.7,5.8-1.1,8.8-1.1
	c3.7,0,7.5,0.5,11.4,1.6c3.8,1.1,7.1,3,9.7,5.9L248.5,91.2z"/>
<path class="st0" d="M312,88.4h-15.4v19c0,1.6,0.1,3,0.2,4.3c0.2,1.3,0.5,2.4,1.1,3.3c0.5,0.9,1.4,1.7,2.5,2.2
	c1.1,0.5,2.6,0.8,4.5,0.8c0.9,0,2.2-0.1,3.7-0.3c1.5-0.2,2.7-0.6,3.5-1.3v14.6c-2,0.7-4,1.2-6.1,1.4c-2.1,0.2-4.2,0.4-6.2,0.4
	c-3,0-5.7-0.3-8.2-0.9c-2.5-0.6-4.7-1.6-6.6-3c-1.9-1.4-3.3-3.1-4.4-5.3c-1.1-2.2-1.6-4.8-1.6-8v-27h-11.2v-14H279V57.5h17.6v16.8
	H312V88.4z"/>
<path class="st0" d="M326.9,74.4h17.6v56.9h-17.6V74.4z"/>
<path class="st0" d="M359.2,74.4H376v7.7h0.2c0.5-1.1,1.3-2.2,2.3-3.3c1-1.1,2.2-2.1,3.6-2.9c1.4-0.9,3-1.6,4.8-2.1
	c1.8-0.5,3.7-0.8,5.8-0.8c4.4,0,8,0.7,10.8,2c2.7,1.4,4.9,3.3,6.4,5.7c1.5,2.4,2.6,5.3,3.1,8.5c0.5,3.3,0.8,6.8,0.8,10.7v31.4h-17.6
	v-27.9c0-1.6-0.1-3.3-0.2-5.1c-0.1-1.8-0.5-3.4-1.1-4.9s-1.5-2.7-2.7-3.6c-1.2-0.9-2.9-1.4-5.2-1.4c-2.3,0-4.1,0.4-5.5,1.2
	c-1.4,0.8-2.5,1.9-3.2,3.3c-0.7,1.4-1.2,2.9-1.5,4.6c-0.2,1.7-0.4,3.5-0.4,5.4v28.3h-17.6V74.4z"/>
<path class="st0" d="M486,126.4c0,10.8-2.7,18.9-8.1,24.5c-5.4,5.6-13.7,8.4-24.8,8.4c-5.1,0-10.1-0.6-15-1.7
	c-4.9-1.1-9.4-3.3-13.6-6.6l9.7-14.5c2.7,2.3,5.6,4.1,8.6,5.4c3,1.3,6.3,2,9.9,2c5.4,0,9.3-1.3,11.9-3.9c2.5-2.6,3.8-6,3.8-10v-5.5
	h-0.2c-2,2.7-4.5,4.7-7.5,5.8c-3,1.1-5.8,1.7-8.5,1.7c-4.2,0-8-0.7-11.5-2.2c-3.4-1.4-6.4-3.5-8.8-6.1c-2.5-2.6-4.4-5.7-5.7-9.3
	c-1.3-3.6-2-7.5-2-11.8c0-3.7,0.6-7.4,1.8-11s2.9-6.7,5.1-9.5c2.2-2.7,4.9-4.9,8.1-6.6c3.2-1.7,6.8-2.5,10.9-2.5
	c2.5,0,4.8,0.3,6.8,0.8c2.1,0.5,3.9,1.2,5.6,2.1c1.6,0.9,3,1.8,4.2,2.9c1.2,1.1,2.1,2.1,2.8,3.1h0.2v-7.5H486V126.4z M441.8,102.4
	c0,1.9,0.3,3.6,1.1,5.3c0.7,1.7,1.7,3.2,3,4.4c1.3,1.3,2.8,2.3,4.4,3.1s3.5,1.2,5.6,1.2c1.9,0,3.8-0.4,5.5-1.2
	c1.7-0.8,3.2-1.8,4.5-3.1c1.3-1.3,2.3-2.8,3-4.4c0.7-1.7,1.1-3.5,1.1-5.3c0-1.9-0.4-3.6-1.1-5.3c-0.7-1.7-1.7-3.2-3-4.4
	c-1.3-1.3-2.8-2.3-4.5-3.1c-1.7-0.8-3.6-1.2-5.5-1.2c-2,0-3.9,0.4-5.6,1.2s-3.2,1.8-4.4,3.1c-1.3,1.3-2.3,2.8-3,4.4
	C442.2,98.8,441.8,100.6,441.8,102.4z"/>
<path class="st0" d="M44.2,53.4v27.1H44c-2-2.7-4.6-4.7-7.8-5.8c-3.2-1.1-6.6-1.7-10.2-1.7c-4.1,0-7.7,0.8-10.9,2.5
	c-3.2,1.7-5.9,3.9-8.1,6.7c-2.2,2.8-3.9,6-5.1,9.7C0.6,95.6,0,99.4,0,103.4c0,4.3,0.7,8.2,2,11.8c1.3,3.6,3.2,6.7,5.7,9.3
	c2.5,2.6,5.4,4.6,8.8,6.1c3.4,1.4,7.3,2.2,11.5,2.2c1.9,0,3.8-0.3,5.7-0.8c1.8-0.5,3.5-1.2,5-2.1c1.5-0.9,2.8-1.8,4-2.9
	c0.6-0.5,1.1-1.1,1.6-1.6v6h1.4h16.1v-15V53.4H44.2z M42,113.3c-2.5,2.7-5.9,4-10.4,4c-4.4,0-7.9-1.3-10.4-4
	c-2.5-2.7-3.7-6.1-3.7-10.4c0-4.3,1.2-7.8,3.7-10.4c2.5-2.7,5.9-4,10.4-4c4.4,0,7.9,1.3,10.4,4c2.5,2.7,3.7,6.1,3.7,10.4
	C45.6,107.2,44.4,110.7,42,113.3z"/>
<circle class="st0" cx="335.6" cy="53.4" r="10.2"/>
<path class="st0" d="M496.3,126.2c0-1.6,0.6-3,1.7-4.2c1.1-1.1,2.5-1.7,4.2-1.7c1.6,0,3,0.6,4.2,1.7c1.1,1.1,1.7,2.5,1.7,4.2
	c0,1.6-0.6,3-1.7,4.2c-1.1,1.1-2.5,1.7-4.2,1.7c-1.6,0-3-0.6-4.2-1.7C496.9,129.2,496.3,127.8,496.3,126.2z"/>
<path class="st0" d="M518.4,74.5h7.4v10h0.2c1.1-2,2.6-3.7,4.3-5.1c1.7-1.4,3.6-2.6,5.6-3.6c2-0.9,4.1-1.6,6.3-2.1
	c2.2-0.4,4.4-0.7,6.5-0.7c4.3,0,8.3,0.7,12,2.2c3.6,1.5,6.8,3.5,9.5,6.2c2.7,2.7,4.7,5.8,6.2,9.5c1.5,3.6,2.2,7.6,2.2,12
	c0,4.3-0.7,8.3-2.2,12c-1.5,3.6-3.5,6.8-6.2,9.5c-2.7,2.7-5.8,4.7-9.5,6.2c-3.6,1.5-7.6,2.2-12,2.2c-2.1,0-4.3-0.2-6.5-0.7
	c-2.2-0.5-4.3-1.1-6.3-2.1c-2-0.9-3.9-2.1-5.6-3.6c-1.7-1.4-3.2-3.1-4.3-5.1h-0.2v38h-7.4V74.5z M525,102.9c0,3.2,0.6,6.2,1.8,9
	c1.2,2.8,2.9,5.3,5,7.4c2.1,2.1,4.6,3.7,7.5,5c2.9,1.2,6,1.8,9.3,1.8c3.4,0,6.6-0.6,9.3-1.8c2.8-1.2,5.2-2.9,7.1-5
	c2-2.1,3.5-4.5,4.5-7.4c1-2.8,1.5-5.8,1.5-9c0-3.2-0.5-6.2-1.5-9c-1-2.8-2.5-5.3-4.5-7.4c-2-2.1-4.3-3.7-7.1-5
	c-2.8-1.2-5.9-1.8-9.3-1.8c-3.4,0-6.5,0.6-9.3,1.8c-2.9,1.2-5.4,2.9-7.5,5c-2.1,2.1-3.8,4.5-5,7.4C525.7,96.7,525,99.7,525,102.9z"
	/>
<path class="st0" d="M588.9,45.8h7.4v85.5h-7.4V45.8z"/>
<path class="st1" d="M2.7,59.5"/>
<path class="st0" d="M130.5,89.3c-0.5-3.3-1.6-6.1-3.1-8.5c-1.5-2.4-3.6-4.3-6.4-5.7c-2.7-1.4-6.3-2-10.8-2c-2.1,0-4.1,0.3-5.8,0.8
	c-1.8,0.5-3.4,1.2-4.7,2.1c-1.3,0.9-2.5,1.8-3.4,2.9c-0.9,1.1-1.6,2.2-2,3.3h-0.2V39.4H76.6v77.9h17.6V103c0-1.9,0.1-3.7,0.4-5.4
	c0.2-1.7,0.7-3.3,1.5-4.6c0.7-1.4,1.8-2.5,3.2-3.3c1.4-0.8,3.2-1.2,5.5-1.2c2.3,0,4,0.5,5.2,1.4c1.2,0.9,2.1,2.1,2.7,3.6
	c0.6,1.5,0.9,3.1,1.1,4.9c0.1,1.8,0.2,3.5,0.2,5.1v27.9h17.6V100C131.4,96.2,131.1,92.6,130.5,89.3z"/>
<rect x="109" class="st2" width="17.6" height="64.8"/>
<rect x="76.6" class="st3" width="17.6" height="31.1"/>
<rect x="44.2" class="st4" width="17.6" height="45.2"/>
</svg>
